<svg width="73" height="44" viewBox="0 0 73 44" fill="none" xmlns="http://www.w3.org/2000/svg">
<path d="M2.6 18C1.992 18 1.52 17.832 1.184 17.496C0.864 17.16 0.704 16.696 0.704 16.104V2.928C0.704 2.304 0.864 1.832 1.184 1.512C1.504 1.192 1.968 1.032 2.576 1.032C3.168 1.032 3.624 1.192 3.944 1.512C4.264 1.832 4.424 2.304 4.424 2.928V14.856H10.856C11.368 14.856 11.76 14.992 12.032 15.264C12.32 15.536 12.464 15.92 12.464 16.416C12.464 16.928 12.32 17.32 12.032 17.592C11.76 17.864 11.368 18 10.856 18H2.6ZM19.7813 18.264C18.5173 18.264 17.4133 18.016 16.4693 17.52C15.5413 17.024 14.8213 16.312 14.3093 15.384C13.7973 14.456 13.5413 13.36 13.5413 12.096C13.5413 11.152 13.6853 10.304 13.9733 9.552C14.2613 8.8 14.6773 8.16 15.2213 7.632C15.7813 7.088 16.4453 6.68 17.2133 6.408C17.9813 6.12 18.8373 5.976 19.7813 5.976C21.0453 5.976 22.1413 6.224 23.0693 6.72C24.0133 7.216 24.7413 7.92 25.2533 8.832C25.7813 9.744 26.0453 10.832 26.0453 12.096C26.0453 13.056 25.8933 13.912 25.5893 14.664C25.3013 15.416 24.8853 16.064 24.3413 16.608C23.7973 17.152 23.1333 17.568 22.3493 17.856C21.5813 18.128 20.7253 18.264 19.7813 18.264ZM19.7813 15.552C20.3093 15.552 20.7653 15.424 21.1493 15.168C21.5333 14.912 21.8373 14.536 22.0613 14.04C22.2853 13.528 22.3973 12.88 22.3973 12.096C22.3973 10.928 22.1573 10.072 21.6773 9.528C21.1973 8.968 20.5653 8.688 19.7813 8.688C19.2693 8.688 18.8133 8.808 18.4133 9.048C18.0293 9.288 17.7253 9.664 17.5013 10.176C17.2933 10.672 17.1893 11.312 17.1893 12.096C17.1893 13.264 17.4293 14.136 17.9093 14.712C18.3893 15.272 19.0133 15.552 19.7813 15.552ZM32.8468 18.264C32.1428 18.264 31.4148 18.2 30.6628 18.072C29.9268 17.944 29.2548 17.728 28.6468 17.424C28.3268 17.264 28.0948 17.064 27.9508 16.824C27.8228 16.568 27.7668 16.312 27.7828 16.056C27.7988 15.8 27.8788 15.568 28.0228 15.36C28.1828 15.152 28.3828 15.016 28.6228 14.952C28.8788 14.872 29.1588 14.896 29.4628 15.024C30.1188 15.296 30.7188 15.488 31.2628 15.6C31.8068 15.712 32.3428 15.768 32.8708 15.768C33.5588 15.768 34.0548 15.664 34.3588 15.456C34.6788 15.232 34.8388 14.944 34.8388 14.592C34.8388 14.272 34.7348 14.032 34.5268 13.872C34.3188 13.712 34.0148 13.6 33.6148 13.536L31.0948 13.08C30.1028 12.904 29.3348 12.544 28.7908 12C28.2628 11.44 27.9988 10.728 27.9988 9.864C27.9988 9.064 28.2228 8.376 28.6708 7.8C29.1188 7.208 29.7348 6.76 30.5188 6.456C31.3188 6.136 32.2228 5.976 33.2308 5.976C33.9508 5.976 34.6148 6.04 35.2228 6.168C35.8308 6.296 36.4148 6.504 36.9748 6.792C37.2628 6.936 37.4628 7.128 37.5748 7.368C37.7028 7.608 37.7428 7.856 37.6948 8.112C37.6628 8.368 37.5668 8.6 37.4068 8.808C37.2468 9.016 37.0388 9.152 36.7828 9.216C36.5428 9.28 36.2628 9.248 35.9428 9.12C35.4308 8.88 34.9588 8.712 34.5268 8.616C34.0948 8.504 33.6788 8.448 33.2788 8.448C32.5588 8.448 32.0388 8.568 31.7188 8.808C31.3988 9.032 31.2388 9.32 31.2388 9.672C31.2388 9.944 31.3268 10.176 31.5028 10.368C31.6948 10.544 31.9828 10.664 32.3668 10.728L34.8868 11.184C35.9268 11.36 36.7188 11.712 37.2628 12.24C37.8068 12.752 38.0788 13.456 38.0788 14.352C38.0788 15.568 37.5988 16.528 36.6388 17.232C35.6948 17.92 34.4308 18.264 32.8468 18.264ZM45.8987 18.264C44.7947 18.264 43.8667 18.08 43.1147 17.712C42.3787 17.344 41.8267 16.808 41.4587 16.104C41.1067 15.4 40.9307 14.512 40.9307 13.44V8.928H39.9227C39.4747 8.928 39.1227 8.808 38.8667 8.568C38.6267 8.328 38.5067 8 38.5067 7.584C38.5067 7.136 38.6267 6.8 38.8667 6.576C39.1227 6.336 39.4747 6.216 39.9227 6.216H40.9307V4.392C40.9307 3.784 41.0907 3.328 41.4107 3.024C41.7307 2.704 42.1787 2.544 42.7547 2.544C43.3467 2.544 43.7947 2.704 44.0987 3.024C44.4027 3.328 44.5547 3.784 44.5547 4.392V6.216H46.8347C47.2827 6.216 47.6267 6.336 47.8667 6.576C48.1067 6.8 48.2267 7.136 48.2267 7.584C48.2267 8 48.1067 8.328 47.8667 8.568C47.6267 8.808 47.2827 8.928 46.8347 8.928H44.5547V13.296C44.5547 13.968 44.7067 14.472 45.0107 14.808C45.3307 15.144 45.8347 15.312 46.5227 15.312C46.7627 15.312 46.9867 15.288 47.1947 15.24C47.4027 15.192 47.5947 15.16 47.7707 15.144C47.9947 15.128 48.1787 15.2 48.3227 15.36C48.4667 15.504 48.5387 15.832 48.5387 16.344C48.5387 16.728 48.4747 17.064 48.3467 17.352C48.2187 17.64 47.9947 17.848 47.6747 17.976C47.4667 18.056 47.1787 18.12 46.8107 18.168C46.4587 18.232 46.1547 18.264 45.8987 18.264ZM62.7143 18.264C61.4663 18.264 60.3783 18.064 59.4503 17.664C58.5383 17.264 57.8343 16.712 57.3383 16.008C56.8423 15.304 56.5943 14.48 56.5943 13.536C56.5943 12.992 56.6663 12.488 56.8103 12.024C56.9703 11.544 57.1943 11.112 57.4823 10.728C57.7863 10.328 58.1463 9.96 58.5623 9.624C58.9783 9.272 59.4423 8.952 59.9543 8.664L60.7943 8.184L60.2663 8.928C59.5943 8.288 59.0983 7.648 58.7783 7.008C58.4743 6.368 58.3223 5.712 58.3223 5.04C58.3223 4.208 58.5303 3.472 58.9463 2.832C59.3623 2.192 59.9463 1.696 60.6983 1.344C61.4503 0.992 62.3223 0.816 63.3143 0.816C64.6903 0.816 65.7783 1.168 66.5783 1.872C67.3783 2.56 67.7783 3.496 67.7783 4.68C67.7783 5.304 67.6583 5.896 67.4183 6.456C67.1783 7 66.8023 7.52 66.2903 8.016C65.7783 8.496 65.1063 8.944 64.2743 9.36L64.2983 8.592L68.1383 12.528H67.3463C67.5543 12.208 67.7303 11.856 67.8743 11.472C68.0343 11.088 68.1703 10.68 68.2823 10.248C68.3943 9.816 68.4823 9.376 68.5463 8.928C68.6423 8.448 68.8103 8.088 69.0503 7.848C69.3063 7.608 69.6663 7.488 70.1303 7.488C70.6263 7.488 70.9943 7.632 71.2343 7.92C71.4903 8.192 71.5863 8.584 71.5223 9.096C71.4263 9.816 71.2823 10.504 71.0903 11.16C70.8983 11.816 70.6583 12.432 70.3703 13.008C70.0983 13.568 69.7863 14.088 69.4343 14.568L69.4103 13.728L71.5703 15.84C71.9543 16.192 72.1463 16.552 72.1463 16.92C72.1463 17.288 72.0023 17.6 71.7143 17.856C71.4423 18.096 71.0663 18.216 70.5863 18.216C70.1543 18.216 69.8023 18.136 69.5303 17.976C69.2743 17.8 68.9783 17.552 68.6423 17.232L67.4183 15.96H68.2103C67.4903 16.664 66.6503 17.224 65.6903 17.64C64.7463 18.056 63.7543 18.264 62.7143 18.264ZM62.9303 15.456C63.6183 15.456 64.2263 15.328 64.7543 15.072C65.2983 14.816 65.8023 14.44 66.2663 13.944L66.1703 14.808L61.2983 9.96L62.8343 10.056L62.1863 10.416C61.7223 10.672 61.3383 10.944 61.0343 11.232C60.7463 11.504 60.5303 11.808 60.3863 12.144C60.2583 12.48 60.1943 12.848 60.1943 13.248C60.1943 13.936 60.4343 14.48 60.9143 14.88C61.3943 15.264 62.0663 15.456 62.9303 15.456ZM63.3143 3.288C62.8023 3.288 62.3943 3.44 62.0903 3.744C61.7863 4.032 61.6343 4.432 61.6343 4.944C61.6343 5.216 61.6823 5.48 61.7783 5.736C61.8743 5.976 62.0263 6.24 62.2343 6.528C62.4583 6.8 62.7623 7.136 63.1463 7.536L62.3783 7.488C63.0023 7.168 63.4903 6.872 63.8423 6.6C64.2103 6.328 64.4743 6.048 64.6343 5.76C64.7943 5.472 64.8743 5.16 64.8743 4.824C64.8743 4.312 64.7303 3.928 64.4423 3.672C64.1703 3.416 63.7943 3.288 63.3143 3.288Z" fill="#2B2B43"/>
<path d="M2.6 43.216C1.992 43.216 1.52 43.048 1.184 42.712C0.864 42.376 0.704 41.888 0.704 41.248V28.024C0.704 27.4 0.872 26.92 1.208 26.584C1.544 26.248 2.024 26.08 2.648 26.08H10.856C11.336 26.08 11.696 26.208 11.936 26.464C12.192 26.704 12.32 27.056 12.32 27.52C12.32 28 12.192 28.368 11.936 28.624C11.696 28.864 11.336 28.984 10.856 28.984H4.424V33.112H10.328C10.808 33.112 11.176 33.24 11.432 33.496C11.688 33.736 11.816 34.088 11.816 34.552C11.816 35.016 11.688 35.376 11.432 35.632C11.176 35.888 10.808 36.016 10.328 36.016H4.424V41.248C4.424 42.56 3.816 43.216 2.6 43.216ZM19.4297 43.264C18.1657 43.264 17.0617 43.016 16.1177 42.52C15.1897 42.024 14.4697 41.312 13.9577 40.384C13.4457 39.456 13.1897 38.36 13.1897 37.096C13.1897 36.152 13.3337 35.304 13.6217 34.552C13.9097 33.8 14.3257 33.16 14.8697 32.632C15.4297 32.088 16.0937 31.68 16.8617 31.408C17.6297 31.12 18.4857 30.976 19.4297 30.976C20.6937 30.976 21.7897 31.224 22.7177 31.72C23.6617 32.216 24.3897 32.92 24.9017 33.832C25.4297 34.744 25.6937 35.832 25.6937 37.096C25.6937 38.056 25.5417 38.912 25.2377 39.664C24.9497 40.416 24.5337 41.064 23.9897 41.608C23.4457 42.152 22.7817 42.568 21.9977 42.856C21.2297 43.128 20.3737 43.264 19.4297 43.264ZM19.4297 40.552C19.9577 40.552 20.4137 40.424 20.7977 40.168C21.1817 39.912 21.4857 39.536 21.7097 39.04C21.9337 38.528 22.0457 37.88 22.0457 37.096C22.0457 35.928 21.8057 35.072 21.3257 34.528C20.8457 33.968 20.2137 33.688 19.4297 33.688C18.9177 33.688 18.4617 33.808 18.0617 34.048C17.6777 34.288 17.3737 34.664 17.1497 35.176C16.9417 35.672 16.8377 36.312 16.8377 37.096C16.8377 38.264 17.0777 39.136 17.5577 39.712C18.0377 40.272 18.6617 40.552 19.4297 40.552ZM32.3272 43.264C31.3352 43.264 30.5112 43.08 29.8552 42.712C29.1992 42.344 28.7112 41.792 28.3912 41.056C28.0872 40.304 27.9352 39.376 27.9352 38.272V32.848C27.9352 32.24 28.0872 31.784 28.3912 31.48C28.7112 31.176 29.1592 31.024 29.7352 31.024C30.3112 31.024 30.7592 31.176 31.0792 31.48C31.3992 31.784 31.5592 32.24 31.5592 32.848V38.368C31.5592 39.072 31.7032 39.6 31.9912 39.952C32.2792 40.288 32.7352 40.456 33.3592 40.456C34.0472 40.456 34.6072 40.216 35.0392 39.736C35.4872 39.24 35.7112 38.592 35.7112 37.792V32.848C35.7112 32.24 35.8632 31.784 36.1672 31.48C36.4872 31.176 36.9352 31.024 37.5112 31.024C38.1032 31.024 38.5512 31.176 38.8552 31.48C39.1752 31.784 39.3352 32.24 39.3352 32.848V41.368C39.3352 42.6 38.7512 43.216 37.5832 43.216C37.0072 43.216 36.5672 43.056 36.2632 42.736C35.9592 42.416 35.8072 41.96 35.8072 41.368V39.76L36.1672 40.696C35.8152 41.512 35.3112 42.144 34.6552 42.592C33.9992 43.04 33.2232 43.264 32.3272 43.264ZM44.0481 43.216C43.4561 43.216 43.0001 43.056 42.6801 42.736C42.3761 42.416 42.2241 41.96 42.2241 41.368V32.848C42.2241 32.256 42.3761 31.808 42.6801 31.504C43.0001 31.184 43.4401 31.024 44.0001 31.024C44.5761 31.024 45.0161 31.184 45.3201 31.504C45.6241 31.808 45.7761 32.256 45.7761 32.848V34.216L45.5121 33.424C45.8801 32.64 46.4241 32.04 47.1441 31.624C47.8801 31.192 48.7121 30.976 49.6401 30.976C50.5841 30.976 51.3601 31.16 51.9681 31.528C52.5761 31.88 53.0321 32.424 53.3361 33.16C53.6401 33.88 53.7921 34.8 53.7921 35.92V41.368C53.7921 41.96 53.6321 42.416 53.3121 42.736C53.0081 43.056 52.5601 43.216 51.9681 43.216C51.3921 43.216 50.9441 43.056 50.6241 42.736C50.3201 42.416 50.1681 41.96 50.1681 41.368V36.088C50.1681 35.272 50.0161 34.688 49.7121 34.336C49.4241 33.968 48.9761 33.784 48.3681 33.784C47.6001 33.784 46.9841 34.024 46.5201 34.504C46.0721 34.984 45.8481 35.624 45.8481 36.424V41.368C45.8481 42.6 45.2481 43.216 44.0481 43.216ZM61.1662 43.264C60.1422 43.264 59.2382 43.016 58.4542 42.52C57.6862 42.024 57.0862 41.312 56.6542 40.384C56.2222 39.456 56.0062 38.36 56.0062 37.096C56.0062 35.832 56.2222 34.744 56.6542 33.832C57.0862 32.92 57.6862 32.216 58.4542 31.72C59.2382 31.224 60.1422 30.976 61.1662 30.976C62.0942 30.976 62.9102 31.2 63.6142 31.648C64.3342 32.096 64.8222 32.68 65.0782 33.4H64.8142V27.712C64.8142 27.104 64.9662 26.648 65.2702 26.344C65.5742 26.024 66.0222 25.864 66.6142 25.864C67.1902 25.864 67.6382 26.024 67.9582 26.344C68.2782 26.648 68.4382 27.104 68.4382 27.712V41.368C68.4382 41.96 68.2782 42.416 67.9582 42.736C67.6542 43.056 67.2142 43.216 66.6382 43.216C66.0622 43.216 65.6142 43.056 65.2942 42.736C64.9902 42.416 64.8382 41.96 64.8382 41.368V39.736L65.1022 40.672C64.8782 41.456 64.3982 42.088 63.6622 42.568C62.9422 43.032 62.1102 43.264 61.1662 43.264ZM62.2462 40.552C62.7742 40.552 63.2302 40.424 63.6142 40.168C63.9982 39.912 64.3022 39.536 64.5262 39.04C64.7502 38.528 64.8622 37.88 64.8622 37.096C64.8622 35.928 64.6222 35.072 64.1422 34.528C63.6622 33.968 63.0302 33.688 62.2462 33.688C61.7342 33.688 61.2782 33.808 60.8782 34.048C60.4942 34.288 60.1902 34.664 59.9662 35.176C59.7582 35.672 59.6542 36.312 59.6542 37.096C59.6542 38.264 59.8942 39.136 60.3742 39.712C60.8542 40.272 61.4782 40.552 62.2462 40.552Z" fill="#4E60FF"/>
</svg>
